# xmcd
#
# Track frame offsets: 
#        150
#        11717
#        23997
#        35230
#        47740
#        60685
#        73142
#        85050
#        98410
#        110335
#        123070
#        138110
#        152550
#        167007
#        179287
#        207350
#        225372
#        237422
#
# Disc length: 3362 seconds
#
# Revision: 4
# Processed by: cddbd v1.5.1PL0 Copyright (c) Steve Scherf et al.
# Submitted via: ExactAudioCopy v0.95a5
#
DISCID=e50d2012
DTITLE=Various Artist - Tighten Up: #1 Soul Hits Of The 60's Volume 2
DYEAR=1997
DGENRE=R&B/Soul
TTITLE0=Jackie Wilson - A Woman, A Lover, A Friend
TTITLE1=Bobby Bland - I Pity The Fool
TTITLE2=The Drifters - Save The Last Dance For Me
TTITLE3=Mary Wells - You Beat Me To The Punch
TTITLE4=Tommy Hunt - I Just Don't Know What To Do With Myself
TTITLE5=Barbara Lewis - Hello Stranger
TTITLE6=Maxine Brown - Oh No Not My Baby
TTITLE7=Percy Sledge - When A Man Loves A Woman
TTITLE8=Joe Tex - A Sweet Woman Like You
TTITLE9=James Brown - It's A Man's Man's Man's World
TTITLE10=Freddie Scott - Are You Loney For Me Baby
TTITLE11=Walter Jackson - My Ship Is Coming In
TTITLE12=Archie Bell and The Drells - Tighten Up
TTITLE13=Jerry Butler - Hey, Western Union Man
TTITLE14=The Dells - Stay In My Corner
TTITLE15=Johnny Adams - Reconsider Me
TTITLE16=Hugh Masekela - Grazing In The Grass
TTITLE17=The Impressions - Choice Of Colors
EXTD=YEAR: 1997
EXTT0=
EXTT1=
EXTT2=
EXTT3=
EXTT4=
EXTT5=
EXTT6=
EXTT7=
EXTT8=
EXTT9=
EXTT10=
EXTT11=
EXTT12=
EXTT13=
EXTT14=
EXTT15=
EXTT16=
EXTT17=
PLAYORDER=
